<?xml version="1.0" encoding="utf-8"?>
<!-- Generator: Adobe Illustrator 27.4.0, SVG Export Plug-In . SVG Version: 6.00 Build 0)  -->
<svg version="1.1" id="Calque_1" xmlns="http://www.w3.org/2000/svg" xmlns:xlink="http://www.w3.org/1999/xlink" x="0px" y="0px"
	 viewBox="0 0 512 512" style="enable-background:new 0 0 512 512;" xml:space="preserve">
<style type="text/css">
	.st0{fill:#838586;}
	.st1{fill:#FF8A4C;}
	.st2{fill:#525859;}
</style>
<g>
	<rect x="243.2" y="14.1" class="st0" width="26.1" height="485.4"/>
	<polygon class="st1" points="415.8,87.3 242.6,257.5 414.3,428.5 431.8,409.3 279.4,257.1 436.7,103.2 	"/>
	<polygon class="st0" points="61.4,387.3 252.1,65.1 256.1,3.6 47.3,360.2 	"/>
	<path class="st2" d="M256,0C114.6,0,0,114.6,0,256c0,141.4,114.6,256,256,256s256-114.6,256-256C512,114.6,397.4,0,256,0z
		 M256,486.2C128.9,486.2,25.8,383.1,25.8,256C25.8,128.9,128.9,25.8,256,25.8S486.2,128.9,486.2,256
		C486.2,383.1,383.1,486.2,256,486.2z"/>
</g>
</svg>
